<?xml version="1.0" encoding="UTF-8"?>
<svg xmlns="http://www.w3.org/2000/svg" viewBox="0 0 1400 2200" font-family="'Pretendard','Apple SD Gothic Neo','맑은 고딕',sans-serif">

  <defs>
    <filter id="shadow" x="-20%" y="-20%" width="140%" height="140%">
      <feGaussianBlur in="SourceAlpha" stdDeviation="3"/>
      <feOffset dx="0" dy="3" result="offsetblur"/>
      <feComponentTransfer><feFuncA type="linear" slope="0.10"/></feComponentTransfer>
      <feMerge><feMergeNode/><feMergeNode in="SourceGraphic"/></feMerge>
    </filter>
    <marker id="arrow-down" viewBox="0 0 10 10" refX="5" refY="9" markerWidth="14" markerHeight="14" orient="auto">
      <path d="M 0 0 L 5 9 L 10 0" stroke="#A8B0C0" stroke-width="1.5" fill="none"/>
    </marker>
  </defs>

  <rect width="1400" height="2200" fill="#FAF9F6"/>

  <!-- ═══ HEADER ═══ -->
  <text x="700" y="60" text-anchor="middle" font-size="34" font-weight="900" fill="#1F2027" letter-spacing="-1">
    한마음일터 — 남은 작업 로드맵
  </text>
  <text x="700" y="90" text-anchor="middle" font-size="13" fill="#8B8B95" letter-spacing="3">
    REMAINING STEPS  ·  AS OF 2026-05-13  ·  4 PHASES
  </text>

  <!-- 진행률 -->
  <g transform="translate(0, 120)">
    <rect x="200" y="0" width="1000" height="56" rx="14" fill="#fff" stroke="#E0E0E5" stroke-width="1" filter="url(#shadow)"/>
    <text x="240" y="34" font-size="13" font-weight="700" fill="#5849B8" letter-spacing="2">PROGRESS</text>
    <text x="350" y="34" font-size="14" fill="#1F2027" font-weight="600">디자인·기본 백엔드</text>
    <rect x="500" y="22" width="500" height="14" rx="7" fill="#E0E0E5"/>
    <rect x="500" y="22" width="300" height="14" rx="7" fill="#4A6FE3"/>
    <text x="1020" y="34" font-size="14" fill="#1F2027" font-weight="800" letter-spacing="-.5">60%</text>
    <text x="1075" y="34" font-size="12" fill="#8B8B95">완료 (결제 도입 포함)</text>
  </g>


  <!-- ═══ PHASE 1 ═══ -->
  <g transform="translate(80, 220)">
    <rect x="0" y="0" width="1240" height="380" rx="20" fill="#fff" stroke="#FFE6D5" stroke-width="2" filter="url(#shadow)"/>
    <rect x="0" y="0" width="1240" height="70" rx="20" fill="#FFF4E0"/>
    <rect x="0" y="50" width="1240" height="20" fill="#FFF4E0"/>

    <text x="36" y="32" font-size="13" font-weight="800" letter-spacing="3" fill="#B5832B">PHASE 1</text>
    <text x="36" y="56" font-size="22" font-weight="900" fill="#1F2027" letter-spacing="-.5">즉시 진행 — 오늘 가능</text>
    <text x="1200" y="44" text-anchor="end" font-size="13" font-weight="700" fill="#B5832B">⏱ 30분 ~ 1시간</text>

    <g transform="translate(36, 100)">
      <g>
        <rect x="0" y="0" width="40" height="40" rx="8" fill="#E5DFF7"/>
        <text x="20" y="28" text-anchor="middle" font-size="18" font-weight="900" fill="#5849B8">1</text>
        <text x="56" y="20" font-size="15" font-weight="700" fill="#1F2027">Apps Script 새 코드 붙여넣기 + 저장</text>
        <text x="56" y="40" font-size="12" fill="#4A4A55">apps-script.js → 한마음일터-backend 편집기 → Ctrl+A → 붙여넣기 → Ctrl+S</text>
        <rect x="900" y="6" width="80" height="28" rx="14" fill="#FFD988"/>
        <text x="940" y="25" text-anchor="middle" font-size="12" font-weight="700" fill="#1F2027">👤 사용자</text>
      </g>
      <g transform="translate(0, 60)">
        <rect x="0" y="0" width="40" height="40" rx="8" fill="#E5DFF7"/>
        <text x="20" y="28" text-anchor="middle" font-size="18" font-weight="900" fill="#5849B8">2</text>
        <text x="56" y="20" font-size="15" font-weight="700" fill="#1F2027">Apps Script 새 버전 배포 (v2)</text>
        <text x="56" y="40" font-size="12" fill="#4A4A55">배포 ▾ → 배포 관리 → ✏️ → 버전: 새 버전 → "v2 이미지 업로드 추가" → 배포</text>
        <rect x="900" y="6" width="80" height="28" rx="14" fill="#FFD988"/>
        <text x="940" y="25" text-anchor="middle" font-size="12" font-weight="700" fill="#1F2027">👤 사용자</text>
      </g>
      <g transform="translate(0, 120)">
        <rect x="0" y="0" width="40" height="40" rx="8" fill="#E5DFF7"/>
        <text x="20" y="28" text-anchor="middle" font-size="18" font-weight="900" fill="#5849B8">3</text>
        <text x="56" y="20" font-size="15" font-weight="700" fill="#1F2027">로컬 서버 실행 + admin·community·quote 테스트</text>
        <text x="56" y="40" font-size="12" fill="#4A4A55">npx serve . → localhost:3000/admin.html → 로그인 → 글 작성·이미지 업로드 → community.html에서 표시 확인</text>
        <rect x="900" y="6" width="80" height="28" rx="14" fill="#FFD988"/>
        <text x="940" y="25" text-anchor="middle" font-size="12" font-weight="700" fill="#1F2027">👤 사용자</text>
      </g>
      <g transform="translate(0, 180)">
        <rect x="0" y="0" width="40" height="40" rx="8" fill="#E5DFF7"/>
        <text x="20" y="28" text-anchor="middle" font-size="18" font-weight="900" fill="#5849B8">4</text>
        <text x="56" y="20" font-size="15" font-weight="700" fill="#1F2027">카카오 개발자 사이트 — 도메인 등록 확인</text>
        <text x="56" y="40" font-size="12" fill="#4A4A55">developers.kakao.com → 한마음일터 홈페이지 앱 → 플랫폼 → Web → localhost·Netlify 도메인 추가</text>
        <rect x="900" y="6" width="80" height="28" rx="14" fill="#FFD988"/>
        <text x="940" y="25" text-anchor="middle" font-size="12" font-weight="700" fill="#1F2027">👤 사용자</text>
      </g>
      <g transform="translate(0, 240)">
        <rect x="0" y="0" width="40" height="40" rx="8" fill="#FCE5E5"/>
        <text x="20" y="28" text-anchor="middle" font-size="18" font-weight="900" fill="#C53030">!</text>
        <text x="56" y="20" font-size="15" font-weight="700" fill="#1F2027">결정 필요 — index.html 메인의 인라인 견적 폼 처리</text>
        <text x="56" y="40" font-size="12" fill="#4A4A55">옵션 A: quote.html과 동일하게 Apps Script 연결  /  옵션 B: 폼 제거하고 "견적요청" 버튼만 남겨 quote.html로 유도</text>
        <rect x="900" y="6" width="80" height="28" rx="14" fill="#FCE5E5"/>
        <text x="940" y="25" text-anchor="middle" font-size="12" font-weight="700" fill="#C53030">⚖ 결정</text>
      </g>
    </g>
  </g>

  <line x1="700" y1="610" x2="700" y2="660" stroke="#A8B0C0" stroke-width="2" marker-end="url(#arrow-down)"/>


  <!-- ═══ PHASE 2 ═══ -->
  <g transform="translate(80, 670)">
    <rect x="0" y="0" width="1240" height="380" rx="20" fill="#fff" stroke="#DCEEE2" stroke-width="2" filter="url(#shadow)"/>
    <rect x="0" y="0" width="1240" height="70" rx="20" fill="#E8F4ED"/>
    <rect x="0" y="50" width="1240" height="20" fill="#E8F4ED"/>

    <text x="36" y="32" font-size="13" font-weight="800" letter-spacing="3" fill="#3F8A5A">PHASE 2</text>
    <text x="36" y="56" font-size="22" font-weight="900" fill="#1F2027" letter-spacing="-.5">콘텐츠 보강 — 며칠 ~ 일주일</text>
    <text x="1200" y="44" text-anchor="end" font-size="13" font-weight="700" fill="#3F8A5A">⏱ 자료 준비 후 함께</text>

    <g transform="translate(36, 100)">
      <g>
        <rect x="0" y="0" width="40" height="40" rx="8" fill="#DCEEE2"/>
        <text x="20" y="28" text-anchor="middle" font-size="18" font-weight="900" fill="#3F8A5A">1</text>
        <text x="56" y="20" font-size="15" font-weight="700" fill="#1F2027">인쇄 페이지 — 갤러리 실제 작품 사진 교체</text>
        <text x="56" y="40" font-size="12" fill="#4A4A55">현재: 이모지 placeholder 18개 → 실제 인쇄·현수막·쇼핑백 작업 사진</text>
        <rect x="850" y="6" width="130" height="28" rx="14" fill="#A8C6F0"/>
        <text x="915" y="25" text-anchor="middle" font-size="12" font-weight="700" fill="#fff">👤 사진 + 🤖 코드</text>
      </g>
      <g transform="translate(0, 60)">
        <rect x="0" y="0" width="40" height="40" rx="8" fill="#DCEEE2"/>
        <text x="20" y="28" text-anchor="middle" font-size="18" font-weight="900" fill="#3F8A5A">2</text>
        <text x="56" y="20" font-size="15" font-weight="700" fill="#1F2027">소개 페이지 — 정확한 정보로 교체</text>
        <text x="56" y="40" font-size="12" fill="#4A4A55">연혁·조직도·시설개요·이용절차 (현재 임의 예시 → 실제 데이터)</text>
        <rect x="850" y="6" width="130" height="28" rx="14" fill="#A8C6F0"/>
        <text x="915" y="25" text-anchor="middle" font-size="12" font-weight="700" fill="#fff">👤 자료 + 🤖 코드</text>
      </g>
      <g transform="translate(0, 120)">
        <rect x="0" y="0" width="40" height="40" rx="8" fill="#DCEEE2"/>
        <text x="20" y="28" text-anchor="middle" font-size="18" font-weight="900" fill="#3F8A5A">3</text>
        <text x="56" y="20" font-size="15" font-weight="700" fill="#1F2027">메인 페이지 — 통계·CTA 정리</text>
        <text x="56" y="40" font-size="12" fill="#4A4A55">임의 수치(1,000+ 고객사·4.8/5 만족도 등) → 실제 수치 또는 제거</text>
        <rect x="850" y="6" width="130" height="28" rx="14" fill="#A8C6F0"/>
        <text x="915" y="25" text-anchor="middle" font-size="12" font-weight="700" fill="#fff">👤 자료 + 🤖 코드</text>
      </g>
      <g transform="translate(0, 180)">
        <rect x="0" y="0" width="40" height="40" rx="8" fill="#DCEEE2"/>
        <text x="20" y="28" text-anchor="middle" font-size="18" font-weight="900" fill="#3F8A5A">4</text>
        <text x="56" y="20" font-size="15" font-weight="700" fill="#1F2027">자원봉사 신청 폼 추가 (선택)</text>
        <text x="56" y="40" font-size="12" fill="#4A4A55">community.html 자원봉사 탭에 신청 폼 + Apps Script 저장 + 이메일 알림</text>
        <rect x="850" y="6" width="130" height="28" rx="14" fill="#E5DFF7"/>
        <text x="915" y="25" text-anchor="middle" font-size="12" font-weight="700" fill="#5849B8">🤖 클로드</text>
      </g>
      <g transform="translate(0, 240)">
        <rect x="0" y="0" width="40" height="40" rx="8" fill="#DCEEE2"/>
        <text x="20" y="28" text-anchor="middle" font-size="18" font-weight="900" fill="#3F8A5A">5</text>
        <text x="56" y="20" font-size="15" font-weight="700" fill="#1F2027">실제 공지·자료실 콘텐츠 입력</text>
        <text x="56" y="40" font-size="12" fill="#4A4A55">사업안내서·우선구매 안내 등 PDF 업로드 + 공지사항 작성</text>
        <rect x="900" y="6" width="80" height="28" rx="14" fill="#FFD988"/>
        <text x="940" y="25" text-anchor="middle" font-size="12" font-weight="700" fill="#1F2027">👤 사용자</text>
      </g>
    </g>
  </g>

  <line x1="700" y1="1060" x2="700" y2="1110" stroke="#A8B0C0" stroke-width="2" marker-end="url(#arrow-down)"/>


  <!-- ═══ PHASE 3 — 결제 시스템 (NEW) ═══ -->
  <g transform="translate(80, 1120)">
    <rect x="0" y="0" width="1240" height="540" rx="20" fill="#fff" stroke="#E5DFF7" stroke-width="2" filter="url(#shadow)"/>
    <rect x="0" y="0" width="1240" height="70" rx="20" fill="#EFE9FA"/>
    <rect x="0" y="50" width="1240" height="20" fill="#EFE9FA"/>

    <text x="36" y="32" font-size="13" font-weight="800" letter-spacing="3" fill="#5849B8">PHASE 3 · NEW</text>
    <text x="36" y="56" font-size="22" font-weight="900" fill="#1F2027" letter-spacing="-.5">💳 토스페이먼츠 결제 시스템 도입</text>
    <text x="1200" y="44" text-anchor="end" font-size="13" font-weight="700" fill="#5849B8">⏱ 가입 1주~ + 개발 1~2시간</text>

    <g transform="translate(36, 100)">
      <g>
        <rect x="0" y="0" width="40" height="40" rx="8" fill="#E5DFF7"/>
        <text x="20" y="28" text-anchor="middle" font-size="18" font-weight="900" fill="#5849B8">1</text>
        <text x="56" y="20" font-size="15" font-weight="700" fill="#1F2027">토스페이먼츠 가맹점 가입 + 사업자 심사 신청</text>
        <text x="56" y="40" font-size="12" fill="#4A4A55">tosspayments.com → 가입 → 사업자등록증·통장사본 제출 → 심사 1~2주 (백그라운드)</text>
        <rect x="900" y="6" width="80" height="28" rx="14" fill="#FFD988"/>
        <text x="940" y="25" text-anchor="middle" font-size="12" font-weight="700" fill="#1F2027">👤 사용자</text>
      </g>
      <g transform="translate(0, 60)">
        <rect x="0" y="0" width="40" height="40" rx="8" fill="#E5DFF7"/>
        <text x="20" y="28" text-anchor="middle" font-size="18" font-weight="900" fill="#5849B8">2</text>
        <text x="56" y="20" font-size="15" font-weight="700" fill="#1F2027">테스트 키 발급 + 클로드에게 공유 (즉시)</text>
        <text x="56" y="40" font-size="12" fill="#4A4A55">가입 즉시 테스트 키 사용 가능. 가맹점 심사와 무관하게 개발·테스트 가능</text>
        <rect x="900" y="6" width="80" height="28" rx="14" fill="#FFD988"/>
        <text x="940" y="25" text-anchor="middle" font-size="12" font-weight="700" fill="#1F2027">👤 사용자</text>
      </g>
      <g transform="translate(0, 120)">
        <rect x="0" y="0" width="40" height="40" rx="8" fill="#E5DFF7"/>
        <text x="20" y="28" text-anchor="middle" font-size="18" font-weight="900" fill="#5849B8">3</text>
        <text x="56" y="20" font-size="15" font-weight="700" fill="#1F2027">결제 페이지 신규 작성 (payment·success·fail)</text>
        <text x="56" y="40" font-size="12" fill="#4A4A55">TossPayments JS SDK 통합 — orderId+token으로 견적 조회 → 결제 위젯 → 검증</text>
        <rect x="850" y="6" width="130" height="28" rx="14" fill="#E5DFF7"/>
        <text x="915" y="25" text-anchor="middle" font-size="12" font-weight="700" fill="#5849B8">🤖 클로드</text>
      </g>
      <g transform="translate(0, 180)">
        <rect x="0" y="0" width="40" height="40" rx="8" fill="#E5DFF7"/>
        <text x="20" y="28" text-anchor="middle" font-size="18" font-weight="900" fill="#5849B8">4</text>
        <text x="56" y="20" font-size="15" font-weight="700" fill="#1F2027">Apps Script 결제 함수 추가</text>
        <text x="56" y="40" font-size="12" fill="#4A4A55">getQuote(), confirmPayment(), sendQuoteWithLink() — 결제 검증·저장·이메일</text>
        <rect x="850" y="6" width="130" height="28" rx="14" fill="#E5DFF7"/>
        <text x="915" y="25" text-anchor="middle" font-size="12" font-weight="700" fill="#5849B8">🤖 클로드</text>
      </g>
      <g transform="translate(0, 240)">
        <rect x="0" y="0" width="40" height="40" rx="8" fill="#E5DFF7"/>
        <text x="20" y="28" text-anchor="middle" font-size="18" font-weight="900" fill="#5849B8">5</text>
        <text x="56" y="20" font-size="15" font-weight="700" fill="#1F2027">시트 견적요청 탭에 결제 컬럼 추가</text>
        <text x="56" y="40" font-size="12" fill="#4A4A55">status (pending/quoted/paid), amount, paymentKey, paidAt, quoteToken</text>
        <rect x="850" y="6" width="130" height="28" rx="14" fill="#E5DFF7"/>
        <text x="915" y="25" text-anchor="middle" font-size="12" font-weight="700" fill="#5849B8">🤖 클로드</text>
      </g>
      <g transform="translate(0, 300)">
        <rect x="0" y="0" width="40" height="40" rx="8" fill="#E5DFF7"/>
        <text x="20" y="28" text-anchor="middle" font-size="18" font-weight="900" fill="#5849B8">6</text>
        <text x="56" y="20" font-size="15" font-weight="700" fill="#1F2027">admin 견적관리 탭 추가</text>
        <text x="56" y="40" font-size="12" fill="#4A4A55">시설장이 들어온 견적에 금액 입력 → 결제링크 자동 발송 (이메일)</text>
        <rect x="850" y="6" width="130" height="28" rx="14" fill="#E5DFF7"/>
        <text x="915" y="25" text-anchor="middle" font-size="12" font-weight="700" fill="#5849B8">🤖 클로드</text>
      </g>
      <g transform="translate(0, 360)">
        <rect x="0" y="0" width="40" height="40" rx="8" fill="#E5DFF7"/>
        <text x="20" y="28" text-anchor="middle" font-size="18" font-weight="900" fill="#5849B8">7</text>
        <text x="56" y="20" font-size="15" font-weight="700" fill="#1F2027">테스트 결제 시뮬레이션 + 사업자 심사 통과 후 실제 키로 교체</text>
        <text x="56" y="40" font-size="12" fill="#4A4A55">테스트 카드로 모든 흐름 검증 → 심사 통과 시 키만 교체 → 첫 실거래 (소액)</text>
        <rect x="850" y="6" width="130" height="28" rx="14" fill="#A8C6F0"/>
        <text x="915" y="25" text-anchor="middle" font-size="12" font-weight="700" fill="#fff">👤 + 🤖 함께</text>
      </g>
    </g>
  </g>

  <line x1="700" y1="1670" x2="700" y2="1720" stroke="#A8B0C0" stroke-width="2" marker-end="url(#arrow-down)"/>


  <!-- ═══ PHASE 4 — 정식 배포 ═══ -->
  <g transform="translate(80, 1730)">
    <rect x="0" y="0" width="1240" height="380" rx="20" fill="#fff" stroke="#DAE7F5" stroke-width="2" filter="url(#shadow)"/>
    <rect x="0" y="0" width="1240" height="70" rx="20" fill="#DAE7F5"/>
    <rect x="0" y="50" width="1240" height="20" fill="#DAE7F5"/>

    <text x="36" y="32" font-size="13" font-weight="800" letter-spacing="3" fill="#3D5DD0">PHASE 4 · LAUNCH</text>
    <text x="36" y="56" font-size="22" font-weight="900" fill="#1F2027" letter-spacing="-.5">🚀 정식 배포 — FTP 호스팅으로 이전</text>
    <text x="1200" y="44" text-anchor="end" font-size="13" font-weight="700" fill="#3D5DD0">⏱ 그쪽 정보 받은 후 1~2시간</text>

    <g transform="translate(36, 100)">
      <g>
        <rect x="0" y="0" width="40" height="40" rx="8" fill="#DAE7F5"/>
        <text x="20" y="28" text-anchor="middle" font-size="18" font-weight="900" fill="#3D5DD0">1</text>
        <text x="56" y="20" font-size="15" font-weight="700" fill="#1F2027">타 기관에서 호스팅 정보 수령</text>
        <text x="56" y="40" font-size="12" fill="#4A4A55">FTP 주소·ID·비번·포트·경로 / 도메인 / ⚠️ HTTPS 지원 여부 (필수)</text>
        <rect x="900" y="6" width="80" height="28" rx="14" fill="#FFD988"/>
        <text x="940" y="25" text-anchor="middle" font-size="12" font-weight="700" fill="#1F2027">👤 사용자</text>
      </g>
      <g transform="translate(0, 60)">
        <rect x="0" y="0" width="40" height="40" rx="8" fill="#DAE7F5"/>
        <text x="20" y="28" text-anchor="middle" font-size="18" font-weight="900" fill="#3D5DD0">2</text>
        <text x="56" y="20" font-size="15" font-weight="700" fill="#1F2027">FileZilla 설치 + FTP 접속 테스트</text>
        <text x="56" y="40" font-size="12" fill="#4A4A55">filezilla-project.org 무료 다운로드 → 정보 입력 → 접속 확인</text>
        <rect x="900" y="6" width="80" height="28" rx="14" fill="#FFD988"/>
        <text x="940" y="25" text-anchor="middle" font-size="12" font-weight="700" fill="#1F2027">👤 사용자</text>
      </g>
      <g transform="translate(0, 120)">
        <rect x="0" y="0" width="40" height="40" rx="8" fill="#DAE7F5"/>
        <text x="20" y="28" text-anchor="middle" font-size="18" font-weight="900" fill="#3D5DD0">3</text>
        <text x="56" y="20" font-size="15" font-weight="700" fill="#1F2027">사이트 파일 전체 FTP 업로드</text>
        <text x="56" y="40" font-size="12" fill="#4A4A55">폴더 통째로 드래그앤드롭. (.git, plan, reference 등 제외 가능 — 안내 드림)</text>
        <rect x="850" y="6" width="130" height="28" rx="14" fill="#A8C6F0"/>
        <text x="915" y="25" text-anchor="middle" font-size="12" font-weight="700" fill="#fff">👤 + 🤖 가이드</text>
      </g>
      <g transform="translate(0, 180)">
        <rect x="0" y="0" width="40" height="40" rx="8" fill="#DAE7F5"/>
        <text x="20" y="28" text-anchor="middle" font-size="18" font-weight="900" fill="#3D5DD0">4</text>
        <text x="56" y="20" font-size="15" font-weight="700" fill="#1F2027">도메인 DNS 설정 + 카카오·토스에 운영 도메인 추가</text>
        <text x="56" y="40" font-size="12" fill="#4A4A55">DNS는 보통 호스팅사가 처리. 카카오·토스 개발자 사이트에 운영 도메인 등록 필수</text>
        <rect x="850" y="6" width="130" height="28" rx="14" fill="#A8C6F0"/>
        <text x="915" y="25" text-anchor="middle" font-size="12" font-weight="700" fill="#fff">👤 + 🤖 가이드</text>
      </g>
      <g transform="translate(0, 240)">
        <rect x="0" y="0" width="40" height="40" rx="8" fill="#DAE7F5"/>
        <text x="20" y="28" text-anchor="middle" font-size="18" font-weight="900" fill="#3D5DD0">5</text>
        <text x="56" y="20" font-size="15" font-weight="700" fill="#1F2027">운영 도메인에서 전 기능 테스트 + 런칭</text>
        <text x="56" y="40" font-size="12" fill="#4A4A55">로그인 / 글 작성 / 이미지 업로드 / 견적 폼 / 카카오맵 / 결제 / 모바일 모두 정상 작동 확인</text>
        <rect x="850" y="6" width="130" height="28" rx="14" fill="#A8C6F0"/>
        <text x="915" y="25" text-anchor="middle" font-size="12" font-weight="700" fill="#fff">👤 + 🤖 함께</text>
      </g>
    </g>
  </g>


  <!-- ═══ 범례 ═══ -->
  <g transform="translate(80, 2140)">
    <text x="0" y="0" font-size="13" font-weight="800" letter-spacing="2" fill="#1F2027">LEGEND</text>

    <rect x="0" y="14" width="20" height="20" rx="10" fill="#FFD988"/>
    <text x="28" y="29" font-size="12" fill="#4A4A55">👤 사용자 작업 (대시보드 클릭·자료 준비 등)</text>

    <rect x="320" y="14" width="20" height="20" rx="10" fill="#E5DFF7"/>
    <text x="348" y="29" font-size="12" fill="#4A4A55">🤖 클로드 작업 (코드 작성·수정)</text>

    <rect x="600" y="14" width="20" height="20" rx="10" fill="#A8C6F0"/>
    <text x="628" y="29" font-size="12" fill="#4A4A55">👤 + 🤖 협업</text>

    <rect x="800" y="14" width="20" height="20" rx="10" fill="#FCE5E5"/>
    <text x="828" y="29" font-size="12" fill="#4A4A55">⚖ 결정 필요</text>

    <text x="1100" y="29" font-size="11" fill="#A8B0C0" letter-spacing="2">한마음일터 · 2026-05-13</text>
  </g>

</svg>
